<svg xmlns="http://www.w3.org/2000/svg" xmlns:xlink="http://www.w3.org/1999/xlink" viewBox="0 0 433 433"><defs><style>.cls-1{opacity:0.55;isolation:isolate;}.cls-2{fill:#2f3542;}</style></defs><g id="Layer_2" data-name="Layer 2"><g id="Layer_1-2" data-name="Layer 1"><g id="Layer_2-2" data-name="Layer 2"><image class="cls-1" width="433" height="433" xlink:href="../C9D1CA2FDAA14C80.png"/><g id="Layer_1-2-2" data-name="Layer 1-2"><path class="cls-2" d="M204.4,417c-1.5-1.9-3.8-1.4-5.7-2-13.1-4.3-22.8-12.8-30.3-24-3.1-4.7-3-4.6-8-2.2-12.8,6.2-26.1,9-40.1,5.2-16.4-4.5-26.2-15.8-31.6-31.5a52.37,52.37,0,0,1-3.2-18.8c.1-3.3-1.3-4-4.2-4-12.5-.4-24.2-3.5-34.2-11.3-16.2-12.7-20.2-29.8-16.3-49.3a56.39,56.39,0,0,1,6.7-17.8c1.4-2.4.9-3.5-1.4-4.9-10.5-6.5-19.1-14.9-24-26.4-7.9-18.5-3.7-35,9-49.9a55.21,55.21,0,0,1,14.6-12.2c2.5-1.5,3.1-2.7,1.6-5.5a58.84,58.84,0,0,1-7.7-29.3c.3-20.9,13-37.8,32.9-43.9,6.2-1.9,12.6-3.4,19.2-3.2,3,.1,3.8-1.1,3.8-4,.2-12.2,3.3-23.7,10.7-33.6,12.3-16.4,29-21,48.5-17.2a56.37,56.37,0,0,1,17.5,6.6c2.5,1.4,3.7,1.2,5.3-1.4,5.3-8.8,12.2-16.2,21.1-21.2,18.9-10.7,40.4-7.9,56.7,6.9a64,64,0,0,1,12.3,14.6c1.5,2.5,2.7,2.5,5,1.2,9.2-5,19.1-8,29.7-7.9,20.8.2,37.8,12.9,43.9,32.9,1.9,6.2,3.4,12.6,3.2,19.2-.1,3,1.1,3.8,4,3.8,12.2.2,23.7,3.3,33.6,10.8,16.4,12.3,21,29,17.1,48.5a57.18,57.18,0,0,1-6.5,17.4c-1.5,2.5-1.1,3.7,1.4,5.2,11.6,7.2,20.5,16.8,25.3,29.8,1,2.7.8,5.7,2.5,8.1v13.6c-1.9,1.9-1.5,4.6-2.4,6.9-4.7,13.1-13.5,22.7-25.1,29.9-2.6,1.6-3.4,2.9-1.7,5.8a57.18,57.18,0,0,1,6.5,17.4c3.8,19.5-.2,36.5-16.4,49.2-9.9,7.8-21.6,11-34.1,11.3-2.9.1-4.3.7-4.2,4a51.83,51.83,0,0,1-3.2,18.7c-6.1,17.6-17.6,29.4-36.5,32.6-13.2,2.2-25.5-1-37.2-7.3-2.3-1.2-3.5-1.1-5,1.3A63.19,63.19,0,0,1,233.1,412c-4.8,2.5-10.1,3.3-15.1,5.2H204.4V417Zm-95.3-78.1c0,6.1.4,10.7,1.8,15.2,4.2,13.8,15.7,20.3,29.7,16.8,7.5-1.9,13.9-5.7,20-10.3,9.4-7,16.8-5,21.4,5.7,2.9,6.8,6.5,13.1,11.7,18.4,10.2,10.4,22.5,11.2,33.9,2.2,7-5.6,11.6-12.9,15.2-21.1,4.3-10,12-12,20.8-5.5a66.73,66.73,0,0,0,15,8.9c17.8,7.3,31.9-.1,36.1-18.8,1.4-6.5,1.1-13,.3-19.4-1.5-11,4.5-17,15.5-15.6,8.9,1.2,17.8,1.1,26.3-2.3,9.7-3.8,14.6-11.1,14.5-21.5a41.67,41.67,0,0,0-9.7-26.4c-9.6-11.7-5.5-20.9,6.7-24.8,4.5-1.4,8.5-4.3,12.3-7.2,16-12.3,15.9-30.3-.1-42.5-5.2-4-11.2-6.5-17.1-9.3-7.4-3.4-9.4-11.2-4.8-18,1.2-1.8,2.5-3.4,3.8-5.1a51.6,51.6,0,0,0,8.4-17.9c3-12.9-2.5-23.3-14.7-28.2a43.88,43.88,0,0,0-25.1-1.9c-10.4,2-18.1-6-15.9-16.1a45.15,45.15,0,0,0-1-22.5c-4.2-14-15.8-20.6-30-16.9-7.5,1.9-13.9,5.8-20,10.4-9.2,6.9-16.7,4.9-21.2-5.6a56.65,56.65,0,0,0-12-18.1c-12.2-12-26.4-11.8-38,.8a51.38,51.38,0,0,0-9.1,13.9c-.8,1.8-1.6,3.7-2.4,5.5-3.7,7.8-11.6,9.9-18.6,4.8S148.7,56.6,140,54.6c-12.8-3-23.3,2.5-28.1,14.7-3.3,8.3-3,16.9-2,25.5,1.4,10.7-4.7,16.9-15.3,15.4-7.8-1-15.6-1.2-23.3,1.1-14.1,4.2-20.5,15.8-16.9,30a52.22,52.22,0,0,0,8.3,17.1l3.3,4.5c5,7.3,3.1,15.1-5,18.8-7.4,3.3-14.7,6.8-20.5,12.6-10.7,10.6-10.8,24.7-.1,35.3A48.34,48.34,0,0,0,58,240.9c12.3,4.4,13.5,14.6,6.3,22.7-4.6,5.3-7.5,11.8-9.4,18.7-4.8,17,2.6,29.1,19.9,32.7a57.23,57.23,0,0,0,19.8.3c10.6-1.4,16.8,4.8,15.3,15.5A58.87,58.87,0,0,0,109.1,338.9Z"/><path class="cls-2" d="M199.4,310.4a127,127,0,0,0,23-2.1,108.11,108.11,0,0,0,13.9-3.3c53-16.5,91.3-63.8,92.5-121,.2-8-4.5-13.6-11.6-13.8s-12.1,5-12.3,13.1a107.57,107.57,0,0,1-5.3,31.3c-10.3,29.6-30,50.7-58.5,63.3-18.8,8.2-38.6,11.2-58.8,6.9-33.8-7.2-57.4-32.3-63.6-66.9-6.1-33.8,14-65,47.3-73.4,24.4-6.1,47.8,4.7,57.8,26.7,9.3,20.6,2.7,42-16.4,51.4-15.4,7.6-31.7,3.1-38.9-11.5-6-12.4-.8-25.7,11.4-28.9,2-.5,4.2-.5,6.3-.9,6.6-1.2,10.9-6.7,10.2-13.1a11.71,11.71,0,0,0-12.3-10.6c-17.3.4-30,8.7-37.6,23.8-11.3,22.2-.3,51.6,23.1,63.2,24.9,12.4,57.4,2.5,72.9-22.1,14.9-23.8,11.7-56.7-8-78.8-18.3-20.5-41.2-27.7-68.2-23.8-37.4,5.5-69,39-72,76.7-1.8,23.4,3.2,45.2,16,64.9C131.1,293.6,161.2,309.4,199.4,310.4Z"/><path class="cls-2" d="M199.4,310.4c-38.1-1-68.2-16.8-89.2-48.9-12.9-19.6-17.9-41.4-16-64.9,3-37.7,34.7-71.2,72-76.7,27-4,50,3.3,68.2,23.8,19.7,22.1,22.9,55,8,78.8-15.5,24.6-48,34.5-72.9,22.1-23.4-11.6-34.4-41-23.1-63.2,7.6-15.1,20.3-23.5,37.6-23.8a11.79,11.79,0,0,1,12.4,10.5c.7,6.4-3.6,11.9-10.2,13.1-2.1.4-4.3.4-6.3.9-12.2,3.2-17.5,16.6-11.4,28.9,7.2,14.6,23.5,19.1,38.9,11.5,19.1-9.4,25.8-30.8,16.4-51.4-9.9-22-33.4-32.8-57.8-26.7-33.3,8.4-53.4,39.6-47.3,73.4,6.2,34.6,29.9,59.8,63.6,66.9,20.2,4.3,40,1.3,58.8-6.9,28.5-12.5,48.2-33.6,58.5-63.3a103.91,103.91,0,0,0,5.4-31.3c.2-8.1,5.2-13.3,12.3-13.1s11.8,5.8,11.6,13.8c-1.2,57.2-39.5,104.5-92.5,121a112.22,112.22,0,0,1-13.9,3.3A120.47,120.47,0,0,1,199.4,310.4Z"/></g></g></g></g></svg>