<?xml version="1.0" encoding="utf-8"?>
<!-- Generator: Adobe Illustrator 25.2.0, SVG Export Plug-In . SVG Version: 6.00 Build 0)  -->
<svg version="1.1" id="Layer_1" xmlns="http://www.w3.org/2000/svg" xmlns:xlink="http://www.w3.org/1999/xlink" x="0px" y="0px"
	 viewBox="0 0 408.7 408.5" style="enable-background:new 0 0 408.7 408.5;" xml:space="preserve">
<style type="text/css">
	.st0{fill:#CED6E0;}
</style>
<g id="Layer_2_1_">
	
		<image style="overflow:visible;opacity:0.55;enable-background:new    ;" width="433" height="434" xlink:href="A513BF57C40C24.png"  transform="matrix(1 0 0 1 -8 -8.5)">
	</image>
	<g>
		<g>
			<g id="Layer_1-2_9_">
				<path class="st0" d="M196.4,408.5c-1.5-1.9-3.8-1.4-5.7-2c-13.1-4.3-22.8-12.8-30.3-24c-3.1-4.7-3-4.6-8-2.2
					c-12.8,6.2-26.1,9-40.1,5.2C95.9,381,86.1,369.7,80.7,354c-2.2-6-3.3-12.4-3.2-18.8c0.1-3.3-1.3-4-4.2-4
					c-12.5-0.4-24.2-3.5-34.2-11.3c-16.2-12.7-20.2-29.8-16.3-49.3c1.2-6.3,3.5-12.3,6.7-17.8c1.4-2.4,0.9-3.5-1.4-4.9
					C17.6,241.4,9,233,4.1,221.5c-7.9-18.5-3.7-35,9-49.9c4.1-4.9,9.1-9,14.6-12.2c2.5-1.5,3.1-2.7,1.6-5.5
					c-5.1-8.9-7.7-19-7.7-29.3c0.3-20.9,13-37.8,32.9-43.9c6.2-1.9,12.6-3.4,19.2-3.2c3,0.1,3.8-1.1,3.8-4
					c0.2-12.2,3.3-23.7,10.7-33.6c12.3-16.4,29-21,48.5-17.2c6.1,1.2,12,3.4,17.5,6.6c2.5,1.4,3.7,1.2,5.3-1.4
					c5.3-8.8,12.2-16.2,21.1-21.2C199.5-4,221-1.2,237.3,13.6c4.8,4.2,8.9,9.1,12.3,14.6c1.5,2.5,2.7,2.5,5,1.2
					c9.2-5,19.1-8,29.7-7.9c20.8,0.2,37.8,12.9,43.9,32.9c1.9,6.2,3.4,12.6,3.2,19.2c-0.1,3,1.1,3.8,4,3.8
					c12.2,0.2,23.7,3.3,33.6,10.8c16.4,12.3,21,29,17.1,48.5c-1.2,6.1-3.4,12-6.5,17.4c-1.5,2.5-1.1,3.7,1.4,5.2
					c11.6,7.2,20.5,16.8,25.3,29.8c1,2.7,0.8,5.7,2.5,8.1v13.6c-1.9,1.9-1.5,4.6-2.4,6.9c-4.7,13.1-13.5,22.7-25.1,29.9
					c-2.6,1.6-3.4,2.9-1.7,5.8c3.1,5.4,5.3,11.3,6.5,17.4c3.8,19.5-0.2,36.5-16.4,49.2c-9.9,7.8-21.6,11-34.1,11.3
					c-2.9,0.1-4.3,0.7-4.2,4c0.1,6.4-1,12.7-3.2,18.7c-6.1,17.6-17.6,29.4-36.5,32.6c-13.2,2.2-25.5-1-37.2-7.3
					c-2.3-1.2-3.5-1.1-5,1.3c-5.9,9.7-14.4,17.6-24.4,22.9c-4.8,2.5-10.1,3.3-15.1,5.2h-13.6L196.4,408.5L196.4,408.5z M101.1,330.4
					c0,6.1,0.4,10.7,1.8,15.2c4.2,13.8,15.7,20.3,29.7,16.8c7.5-1.9,13.9-5.7,20-10.3c9.4-7,16.8-5,21.4,5.7
					c2.9,6.8,6.5,13.1,11.7,18.4c10.2,10.4,22.5,11.2,33.9,2.2c7-5.6,11.6-12.9,15.2-21.1c4.3-10,12-12,20.8-5.5
					c4.6,3.6,9.6,6.6,15,8.9c17.8,7.3,31.9-0.1,36.1-18.8c1.4-6.5,1.1-13,0.3-19.4c-1.5-11,4.5-17,15.5-15.6
					c8.9,1.2,17.8,1.1,26.3-2.3c9.7-3.8,14.6-11.1,14.5-21.5c-0.1-9.7-3.5-19-9.7-26.4c-9.6-11.7-5.5-20.9,6.7-24.8
					c4.5-1.4,8.5-4.3,12.3-7.2c16-12.3,15.9-30.3-0.1-42.5c-5.2-4-11.2-6.5-17.1-9.3c-7.4-3.4-9.4-11.2-4.8-18
					c1.2-1.8,2.5-3.4,3.8-5.1c3.9-5.4,6.8-11.4,8.4-17.9c3-12.9-2.5-23.3-14.7-28.2c-8-3.1-16.7-3.7-25.1-1.9
					c-10.4,2-18.1-6-15.9-16.1c1.6-7.5,1.2-15.2-1-22.5c-4.2-14-15.8-20.6-30-16.9c-7.5,1.9-13.9,5.8-20,10.4
					c-9.2,6.9-16.7,4.9-21.2-5.6c-2.8-6.8-6.9-12.9-12-18.1c-12.2-12-26.4-11.8-38,0.8c-3.8,4.1-6.8,8.8-9.1,13.9
					c-0.8,1.8-1.6,3.7-2.4,5.5c-3.7,7.8-11.6,9.9-18.6,4.8s-14.1-9.9-22.8-11.9c-12.8-3-23.3,2.5-28.1,14.7c-3.3,8.3-3,16.9-2,25.5
					c1.4,10.7-4.7,16.9-15.3,15.4c-7.8-1-15.6-1.2-23.3,1.1c-14.1,4.2-20.5,15.8-16.9,30c1.7,6.2,4.5,11.9,8.3,17.1
					c1.1,1.5,2.2,3,3.3,4.5c5,7.3,3.1,15.1-5,18.8c-7.4,3.3-14.7,6.8-20.5,12.6c-10.7,10.6-10.8,24.7-0.1,35.3c5,5,11,8.9,17.6,11.3
					c12.3,4.4,13.5,14.6,6.3,22.7c-4.6,5.3-7.5,11.8-9.4,18.7c-4.8,17,2.6,29.1,19.9,32.7c6.5,1.2,13.2,1.4,19.8,0.3
					c10.6-1.4,16.8,4.8,15.3,15.5C101.3,325.4,101.2,328.6,101.1,330.4z"/>
				<path class="st0" d="M191.4,301.9c7.7,0,15.4-0.7,23-2.1c4.7-0.8,9.4-1.9,13.9-3.3c53-16.5,91.3-63.8,92.5-121
					c0.2-8-4.5-13.6-11.6-13.8s-12.1,5-12.3,13.1c-0.2,10.6-2,21.2-5.3,31.3c-10.3,29.6-30,50.7-58.5,63.3
					c-18.8,8.2-38.6,11.2-58.8,6.9c-33.8-7.2-57.4-32.3-63.6-66.9c-6.1-33.8,14-65,47.3-73.4c24.4-6.1,47.8,4.7,57.8,26.7
					c9.3,20.6,2.7,42-16.4,51.4c-15.4,7.6-31.7,3.1-38.9-11.5c-6-12.4-0.8-25.7,11.4-28.9c2-0.5,4.2-0.5,6.3-0.9
					c6.6-1.2,10.9-6.7,10.2-13.1c-0.6-6.3-6-10.9-12.3-10.6c-17.3,0.4-30,8.7-37.6,23.8c-11.3,22.2-0.3,51.6,23.1,63.2
					c24.9,12.4,57.4,2.5,72.9-22.1c14.9-23.8,11.7-56.7-8-78.8c-18.3-20.5-41.2-27.7-68.2-23.8c-37.4,5.5-69,39-72,76.7
					c-1.8,23.4,3.2,45.2,16,64.9C123.1,285.1,153.2,300.9,191.4,301.9z"/>
				<path class="st0" d="M191.4,301.9c-38.1-1-68.2-16.8-89.2-48.9c-12.9-19.6-17.9-41.4-16-64.9c3-37.7,34.7-71.2,72-76.7
					c27-4,50,3.3,68.2,23.8c19.7,22.1,22.9,55,8,78.8c-15.5,24.6-48,34.5-72.9,22.1c-23.4-11.6-34.4-41-23.1-63.2
					c7.6-15.1,20.3-23.5,37.6-23.8c6.3-0.4,11.7,4.3,12.4,10.5c0.7,6.4-3.6,11.9-10.2,13.1c-2.1,0.4-4.3,0.4-6.3,0.9
					c-12.2,3.2-17.5,16.6-11.4,28.9c7.2,14.6,23.5,19.1,38.9,11.5c19.1-9.4,25.8-30.8,16.4-51.4c-9.9-22-33.4-32.8-57.8-26.7
					c-33.3,8.4-53.4,39.6-47.3,73.4c6.2,34.6,29.9,59.8,63.6,66.9c20.2,4.3,40,1.3,58.8-6.9c28.5-12.5,48.2-33.6,58.5-63.3
					c3.4-10.1,5.2-20.6,5.4-31.3c0.2-8.1,5.2-13.3,12.3-13.1s11.8,5.8,11.6,13.8c-1.2,57.2-39.5,104.5-92.5,121
					c-4.6,1.4-9.2,2.5-13.9,3.3C206.8,301.2,199.1,301.9,191.4,301.9z"/>
			</g>
		</g>
	</g>
</g>
</svg>
